<svg width="215" height="32" fill="none" xmlns="http://www.w3.org/2000/svg"><path d="M29.96 9.576v3.12c0 1.744.16 3.568 4.112 3.568.88 0 2.176-.112 3.072-.32V21H38.2V9.576h-1.056v5.392a13.53 13.53 0 0 1-3.056.336c-3.072 0-3.072-1.248-3.072-2.448v-3.28H29.96Zm11.247 0V21h1.856l5.856-10.304h.32V21h1.056V9.576H48.44L42.6 19.88h-.336V9.576h-1.056Zm19.646 0H52.1v.928h3.856V21h1.056V10.504h3.84v-.928Zm5.842 0h-1.92L60.695 21H61.8l1.296-3.696h5.264L69.655 21h1.136L66.695 9.576Zm-1.28 1.12h.624l1.984 5.648h-4.592l1.984-5.648Zm13.97-1.12h-8.753v.928h3.856V21h1.056V10.504h3.84v-.928Zm2.862 10.464v-4.944h3.329c2.224 0 3.008.976 3.008 2.464 0 1.504-.785 2.48-3.008 2.48h-3.328Zm3.52.96c2.496 0 3.873-1.296 3.873-3.424 0-2.16-1.377-3.44-3.873-3.44h-3.52v-4.56h-1.055V21h4.576Zm10.69-11.424V21h1.056V10.536h6.816V21h1.056V9.576h-8.928Zm16.578-.208c-3.424 0-5.232 2.656-5.232 5.92s1.808 5.92 5.232 5.92c3.408 0 5.232-2.656 5.232-5.92s-1.824-5.92-5.232-5.92Zm0 10.88c-2.944 0-4.176-2.464-4.176-4.96s1.232-4.96 4.176-4.96 4.176 2.464 4.176 4.96-1.232 4.96-4.176 4.96Zm6.297-.304V21h.272c2.352 0 3.296-1.472 3.296-7.136v-3.328h5.088V21h1.056V9.576h-7.168v4.288c0 5.088-.752 6.08-2.272 6.08h-.272Zm20.703-10.368V14.6h-6.928V9.576h-1.056V21h1.056v-5.408h6.928V21h1.056V9.576h-1.056Zm8.703-.208c-3.424 0-5.232 2.656-5.232 5.92s1.808 5.92 5.232 5.92c3.408 0 5.232-2.656 5.232-5.92s-1.824-5.92-5.232-5.92Zm0 10.88c-2.944 0-4.176-2.464-4.176-4.96s1.232-4.96 4.176-4.96 4.176 2.464 4.176 4.96-1.232 4.96-4.176 4.96Zm15.545-2.336c-.432 1.408-1.536 2.336-3.28 2.336-2.912 0-4.16-2.4-4.16-4.96 0-2.544 1.264-4.96 4.176-4.96 1.744 0 2.656.768 3.152 2.112h1.12c-.464-1.92-2.048-3.072-4.272-3.072-3.376 0-5.232 2.576-5.232 5.92s1.856 5.92 5.216 5.92c2.416 0 3.936-1.36 4.416-3.296h-1.136Zm11.007-8.336h-8.752v.928h3.856V21h1.056V10.504h3.84v-.928Zm2.864 10.464v-4.944h3.328c2.224 0 3.008.976 3.008 2.464 0 1.504-.784 2.48-3.008 2.48h-3.328Zm3.52.96c2.496 0 3.872-1.296 3.872-3.424 0-2.16-1.376-3.44-3.872-3.44h-3.52v-4.56h-1.056V21h4.576Zm14.924-11.632c-3.072 0-4.848 2.304-5.056 5.232h-2.576V9.576h-1.056V21h1.056v-5.408h2.544c.128 3.12 1.84 5.616 5.088 5.616 3.328 0 5.088-2.656 5.088-5.92s-1.76-5.92-5.088-5.92Zm0 10.88c-2.88 0-4.032-2.464-4.032-4.96s1.152-4.96 4.032-4.96 4.032 2.464 4.032 4.96-1.152 4.96-4.032 4.96Z" fill="#242424"/><path fill-rule="evenodd" clip-rule="evenodd" d="M19.908 8.059v9.225h-.994V9.76L5.413 23.262l-.708-.707L18.176 9.084h-7.427V8.059H19.908Z" fill="#242424"/><path stroke="#242424" d="M.5 31V0M0 31.5h210"/></svg>