<svg version="1.0" xmlns="http://www.w3.org/2000/svg" width="490.667" height="128" viewBox="0 0 368 96"><path d="M54.2 20.2c-1.4 1.4-1.6 7.6-.3 9.6.5.8 2.3 1.2 4.7 1 3.7-.3 3.9-.5 3.9-3.8 0-3.1-.3-3.5-2.7-3.8-3.8-.4-3.6-2.2.2-2.2 1.7 0 3-.5 3-1 0-1.4-7.4-1.2-8.8.2zm5.5 6.5c.2.6-.3 1.3-1.2 1.6-1 .5-1.5 0-1.5-1.4 0-2.1 2.1-2.2 2.7-.2zM322.5 20.2c-2.8 1.6-3.5 2.8-3.5 6.4 0 3.8 2.7 6.4 6.7 6.4 3.1 0 6.3-2.6 6.3-5.1 0-.8-.6-.3-1.3 1.1-1.4 2.8-5.5 3.8-8.4 2.1-1.7-1-1.7-1 0-1.1.9 0 1.7-.5 1.7-1.2 0-.9.3-.9 1.2 0 1.5 1.5 4.2 1.6 3.3.2-.4-.6-.1-1.7.5-2.5 2.2-2.6.4-4.7-3.7-4.3-3.5.3-3.8.5-3.8 3.5 0 1.7-.4 3.5-.8 3.9-.4.4-.7-.9-.7-2.9 0-2.6.6-4 2.2-5.1 3.1-2.2 4.5-2 7.3.9 2.4 2.3 3.3 2.3 1.7-.1-.8-1.2-4.6-3.4-5.9-3.4-.4 0-1.7.6-2.8 1.2zM327 25c0 .5-.7 1-1.5 1s-1.5-.5-1.5-1c0-.6.7-1 1.5-1s1.5.4 1.5 1zM32.7 22.7c-1.4 1.3-.7 7.1.9 7.7 2.9 1.1 7.6.7 7.1-.7-.2-.6-1-1.1-1.7-.9-1.8.4-4-1.7-3.3-3.4.3-.8 1.6-1.4 2.9-1.4 1.3 0 2.4-.5 2.4-1 0-1.1-7.3-1.4-8.3-.3zM42 26.4c0 3.3.4 4.6 1.4 4.6.9 0 1.6-1.2 1.8-3.2.4-4.6 2.8-4.9 2.8-.4 0 3 .4 3.6 2.1 3.6 1.8 0 2-.5 1.7-4.3l-.3-4.2-4.7-.3-4.8-.3v4.5zM333 24.9c0 2.9 2.2 6.1 4.1 6.1.6 0 1.9-.5 3-1 2.4-1.3 2.8-8 .4-8-1 0-1.5 1-1.5 3s-.5 3-1.5 3-1.5-1-1.5-3-.5-3-1.5-3-1.5 1-1.5 2.9zM38.7 36.5c-8.4 2.9-11.2 8.4-10.5 20.4.5 8.9 1.8 11.5 7.3 14.4 3.5 1.9 6 2.2 21.3 2.5l17.2.4v-10l-12.1-.4c-11.3-.3-12.2-.5-14-2.7-2.5-3.1-2.5-10.1 0-13.2 1.8-2.2 2.7-2.4 13.5-2.7l11.6-.4V35H57.8c-10.3.1-16.6.5-19.1 1.5zM85.7 36.6c-3.6 1.1-5.3 2.4-7.5 5.6-2.4 3.7-2.7 5.1-2.7 12.2 0 9.6 2.2 14.2 8.3 17.2 5.5 2.8 31.9 2.8 37.4 0 6-2.9 8.3-7.6 8.3-17.1 0-9.5-2.3-14.2-8.3-17.1-5.1-2.5-28.4-3.1-35.5-.8zm24.1 10.7c2 2 2.6 8.3 1.2 11.7-2.4 5.8-14.3 6.1-16.9.4-2.3-5-.7-11.8 3.1-13.4 2.9-1.2 10.8-.4 12.6 1.3zM139.4 36.7c-5.6 2.8-6.8 6.2-6.8 20.2 0 17-1.4 16.1 24.6 16.1h20l2.9-2.9c2.8-2.9 3.3-4.8 2.9-11.6-.4-8.4-2.8-9.5-20-9.5-10.1 0-13.1-.3-12.8-1.3.9-2.6 5.1-3.4 17.4-3.3l12.4.2V35l-18.7.1c-14.9 0-19.5.4-21.9 1.6zm25.5 22.2c1.2.8 1.2 1.2.2 2.5-.9 1.1-3.1 1.6-7 1.6-5.6 0-8.1-1.1-8.1-3.7 0-1.5 12.6-1.8 14.9-.4zM188 39.9V45h13.8c13.2 0 16.2.6 16.2 3.2 0 .4-5.1.8-11.2.8-14.1 0-18.3 1.1-20.4 5.2-2.5 4.8-1.5 13.2 2 16.6l2.6 2.7h20.6c25.7 0 24.4.9 24.4-16.2 0-13.1-1.3-17.3-6.4-20.1-2.5-1.4-6.5-1.8-22.3-2l-19.3-.4v5.1zM218 61c0 1.9-.5 2.1-7.2 1.8-6-.2-7.3-.6-7.6-2.1-.3-1.5.6-1.7 7.2-1.7 7 0 7.6.2 7.6 2zM239 54.5V74h18V35h-18v19.5zM266 43.2c-5.6 6.5-7 8.8-6.8 10.9.2 1.7 3.1 6 7.8 11.3l7.5 8.5 10 .1h10l-9.3-9.3c-5-5.1-9.2-9.9-9.2-10.8 0-.8 1.4-2.8 3.1-4.5 1.7-1.6 5.3-5.5 8.1-8.7l5-5.7h-19.1l-7.1 8.2z"/><path d="M294.8 36.7c-.1 1-.2 3.3-.3 5l-.1 3.3h13.2c13.9 0 16.4.4 16.4 2.5 0 1-3.3 1.4-13.5 1.7-13.1.3-13.5.4-16.2 3.1-2.4 2.3-2.8 3.5-2.8 8.7 0 7.1 2.4 11 7.5 12.3 1.9.5 11.4.7 21.3.5 22.6-.4 21.7.3 21.7-16.4 0-20.8-1.3-21.8-28.2-22.2-17.6-.3-18.8-.2-19 1.5zM324 61c0 1.8-.7 2-6.9 2-6.7 0-8.9-.9-7.6-3 .3-.6 3.7-1 7.6-1 6.2 0 6.9.2 6.9 2z"/></svg>