<svg width="121" height="105" viewBox="0 0 121 105" fill="none" xmlns="http://www.w3.org/2000/svg">
<path d="M77.5994 45.8198H73.2772C73.0091 47.8487 71.2668 49.4042 69.1895 49.4042V53.7326C73.6457 53.7326 77.2979 50.2496 77.5994 45.8198Z" fill="#2E2E2E"/>
<path d="M77.5994 44.67C77.3314 40.2402 73.6457 36.7234 69.1895 36.7234V41.0517C71.3003 41.0517 73.0426 42.6411 73.3107 44.67H77.5994Z" fill="#2E2E2E"/>
<path d="M77.5994 57.4183C77.3314 52.9885 73.6457 49.4717 69.1895 49.4717V53.8C71.3003 53.8 73.0426 55.3894 73.3107 57.4183H77.5994Z" fill="#2E2E2E"/>
<path d="M77.5994 58.5681H73.2772C73.0091 60.597 71.2668 62.1525 69.1895 62.1525V66.4809C73.6457 66.4809 77.2979 62.9979 77.5994 58.5681Z" fill="#2E2E2E"/>
<path d="M46.7401 0C42.3508 0.270522 38.8662 3.99021 38.8662 8.48764H43.155C43.155 6.35728 44.7297 4.59888 46.7401 4.32836V0Z" fill="#2E2E2E"/>
<path d="M68.0506 36.791C63.6614 37.0954 60.1768 40.7812 60.1768 45.2786H64.4655C64.4655 43.1483 66.0403 41.4237 68.0506 41.1194V36.791Z" fill="#2E2E2E"/>
<path d="M47.8467 0V4.36217C49.857 4.6327 51.3983 6.39109 51.3983 8.48764H55.687C55.7205 3.99021 52.2359 0.304338 47.8467 0Z" fill="#2E2E2E"/>
<path d="M69.0889 11.7339V16.0961C71.0992 16.3666 72.6405 18.125 72.6405 20.2215H76.9293C76.9628 15.6903 73.4781 12.0044 69.0889 11.7339Z" fill="#2E2E2E"/>
<path d="M47.8125 29.9942C52.2018 29.7237 55.6864 26.004 55.6864 21.5066H51.3976C51.3976 23.637 49.8229 25.3954 47.8125 25.6659V29.9942Z" fill="#2E2E2E"/>
<path d="M46.7068 29.9604V25.6321C44.6965 25.3615 43.1552 23.6031 43.1552 21.5066H38.8665C38.8329 26.004 42.3175 29.6899 46.7068 29.9604Z" fill="#2E2E2E"/>
<path d="M29.6527 0.608643H25.3975V29.284H29.6527V0.608643Z" fill="#2E2E2E"/>
<path d="M43.1553 12.7483H30.7246V17.0428H43.1553V12.7483Z" fill="#2E2E2E"/>
<path d="M76.9628 0.608643H60.1094V4.90319H76.9628V0.608643Z" fill="#2E2E2E"/>
<path d="M55.6862 12.7483H51.3975V17.0428H55.6862V12.7483Z" fill="#2E2E2E"/>
<path d="M70.0944 11.7339H65.8057V16.0284H70.0944V11.7339Z" fill="#2E2E2E"/>
<path d="M46.7069 36.6221C42.3176 36.8926 38.833 40.6123 38.833 45.1097H43.1218C43.1218 42.9793 44.6965 41.2209 46.7069 40.9504V36.6221Z" fill="#2E2E2E"/>
<path d="M47.8467 36.6221V40.9842C49.857 41.2548 51.3983 43.0132 51.3983 45.1097H55.687C55.687 40.6123 52.2024 36.9264 47.8467 36.6221Z" fill="#2E2E2E"/>
<path d="M47.8125 66.7852C52.2018 66.5147 55.6864 62.795 55.6864 58.2976H51.3976C51.3976 60.428 49.8229 62.1864 47.8125 62.4569V66.7852Z" fill="#2E2E2E"/>
<path d="M46.6734 66.7852V62.4231C44.663 62.1526 43.1218 60.3942 43.1218 58.2976H38.833C38.833 62.795 42.2841 66.4809 46.6734 66.7852Z" fill="#2E2E2E"/>
<path d="M55.6862 46.3269H51.3975V57.0464H55.6862V46.3269Z" fill="#2E2E2E"/>
<path d="M64.4987 44.0952H60.21V48.3898H64.4987V44.0952Z" fill="#2E2E2E"/>
<path d="M64.4987 54.916H60.21V59.2106H64.4987V54.916Z" fill="#2E2E2E"/>
<path d="M71.502 49.3704H60.043V53.6649H71.502V49.3704Z" fill="#2E2E2E"/>
<path d="M43.1218 46.3269H38.833V57.0464H43.1218V46.3269Z" fill="#2E2E2E"/>
<path d="M64.3981 6.18823H60.1094V15.9609H64.3981V6.18823Z" fill="#2E2E2E"/>
<path d="M68.0503 66.6163V62.2541C66.04 61.9836 64.4987 60.2252 64.4987 58.1287H60.21C60.21 62.6261 63.6611 66.312 68.0503 66.6163Z" fill="#2E2E2E"/>
<path d="M96.9324 45.8198H92.6102C92.3421 47.8487 90.5998 49.4042 88.5225 49.4042V53.7326C92.9787 53.7326 96.6309 50.2496 96.9324 45.8198Z" fill="#2E2E2E"/>
<path d="M96.9324 57.4183C96.6644 52.9885 92.9787 49.4717 88.5225 49.4717V53.8C90.6333 53.8 92.3756 55.3894 92.6437 57.4183H96.9324Z" fill="#2E2E2E"/>
<path d="M86.2438 37.2307H81.9551V48.3898H86.2438V37.2307Z" fill="#2E2E2E"/>
<path d="M86.2438 54.916H81.9551V65.9398H86.2438V54.916Z" fill="#2E2E2E"/>
<path d="M90.4996 49.3704H81.7881V53.6649H90.4996V49.3704Z" fill="#2E2E2E"/>
<path d="M107.956 44.0952H103.667V48.3898H107.956V44.0952Z" fill="#2E2E2E"/>
<path d="M120.52 44.0952H116.231V48.3898H120.52V44.0952Z" fill="#2E2E2E"/>
<path d="M120.52 54.7468H116.231V59.0414H120.52V54.7468Z" fill="#2E2E2E"/>
<path d="M111.541 36.6221C107.152 36.9264 103.667 40.6123 103.667 45.1097H107.956C107.956 42.9793 109.531 41.2548 111.541 40.9504V36.6221Z" fill="#2E2E2E"/>
<path d="M112.68 36.6221V40.9842C114.69 41.2548 116.231 43.0132 116.231 45.1097H120.52C120.52 40.6123 117.069 36.9264 112.68 36.6221Z" fill="#2E2E2E"/>
<path d="M100.651 36.5544C96.2619 36.825 92.7773 40.5446 92.7773 45.0421H97.0661C97.0661 42.9117 98.6409 41.1871 100.651 40.8828V36.5544Z" fill="#2E2E2E"/>
<path d="M100.651 66.7852C96.2619 66.5147 92.7773 62.795 92.7773 58.2976H97.0661C97.0661 60.428 98.6409 62.1864 100.651 62.4569V66.7852Z" fill="#2E2E2E"/>
<path d="M120.521 57.9595H116.266V65.9061H120.521V57.9595Z" fill="#2E2E2E"/>
<path d="M107.956 54.7468H103.667V59.0414H107.956V54.7468Z" fill="#2E2E2E"/>
<path d="M107.956 57.9595H103.701V65.9061H107.956V57.9595Z" fill="#2E2E2E"/>
<path d="M120.52 49.3704H103.667V53.6649H120.52V49.3704Z" fill="#2E2E2E"/>
<path d="M7.94109 7.43945H3.65234V11.734H7.94109V7.43945Z" fill="#2E2E2E"/>
<path d="M20.5055 7.43945H16.2168V11.734H20.5055V7.43945Z" fill="#2E2E2E"/>
<path d="M43.1218 7.43945H38.833V11.734H43.1218V7.43945Z" fill="#2E2E2E"/>
<path d="M55.7204 7.43945H51.4316V11.734H55.7204V7.43945Z" fill="#2E2E2E"/>
<path d="M43.1218 18.125H38.833V22.4195H43.1218V18.125Z" fill="#2E2E2E"/>
<path d="M55.7204 18.125H51.4316V22.4195H55.7204V18.125Z" fill="#2E2E2E"/>
<path d="M69.0889 29.9942C73.4781 29.7237 76.9628 26.004 76.9628 21.5066H72.674C72.674 23.637 71.0992 25.3954 69.0889 25.6659V29.9942Z" fill="#2E2E2E"/>
<path d="M67.9497 29.9604V25.6321C65.9394 25.3615 64.3981 23.6031 64.3981 21.5066H60.1094C60.1094 26.004 63.5605 29.6899 67.9497 29.9604Z" fill="#2E2E2E"/>
<path d="M64.3981 17.1106H60.1094V22.4196H64.3981V17.1106Z" fill="#2E2E2E"/>
<path d="M7.94109 13.1541H3.65234V22.4194H7.94109V13.1541Z" fill="#2E2E2E"/>
<path d="M11.5262 0C7.13695 0.304338 3.65234 3.99021 3.65234 8.48764H7.94109C7.94109 6.35728 9.51587 4.6327 11.5262 4.32836V0V0Z" fill="#2E2E2E"/>
<path d="M12.665 0V4.36217C14.6754 4.6327 16.2167 6.39109 16.2167 8.48764H20.5054C20.5054 3.99021 17.0543 0.304338 12.665 0Z" fill="#2E2E2E"/>
<path d="M0.0341797 29.7914C4.42345 29.5208 7.90805 25.835 7.90805 21.3037H3.6193C3.6193 23.4341 2.04453 25.1587 0.0341797 25.463V29.7914V29.7914Z" fill="#2E2E2E"/>
<path d="M20.5052 13.1541H16.25V29.284H20.5052V13.1541Z" fill="#2E2E2E"/>
<path d="M86.1439 14.8449L81.8887 20.5597V0.608643H86.1439V14.8449Z" fill="#2E2E2E"/>
<path d="M98.9427 29.3515H94.6875V15.4872L98.9427 10.043V29.3515Z" fill="#2E2E2E"/>
<path d="M98.9431 0.0336914L81.8887 23.1972V30.1293L98.9431 7.13491V0.0336914Z" fill="#2E2E2E"/>
<path d="M20.3383 51.839L16.083 57.1818V51.5684L20.3383 45.8198V51.839Z" fill="#2E2E2E"/>
<path d="M33.975 65.9736H29.7197V51.433L33.975 46.3269V65.9736Z" fill="#2E2E2E"/>
<path d="M33.9751 36.6558L16.083 59.8193V66.7514L33.9751 43.757V36.6558Z" fill="#2E2E2E"/>
<path d="M20.338 36.6558L0 59.8193V66.7514L20.338 43.757V36.6558Z" fill="#2E2E2E"/>
<path d="M94.0212 75C88.6824 75.3533 84.4521 79.8287 84.4521 85.3052H89.6743C89.6743 82.7436 91.5706 80.5943 94.0504 80.2704V75H94.0212Z" fill="#2E2E2E"/>
<path d="M95.3926 75V80.2704C97.8432 80.6237 99.7103 82.7436 99.7103 85.3052H104.932C104.932 79.8287 100.702 75.3533 95.3926 75Z" fill="#2E2E2E"/>
<path d="M109.367 75C104.028 75.3533 99.7979 79.8287 99.7979 85.3052H105.02C105.02 82.7436 106.916 80.5943 109.396 80.2704V75H109.367Z" fill="#2E2E2E"/>
<path d="M110.738 75V80.2704C113.189 80.6237 115.056 82.7436 115.056 85.3052H120.278C120.278 79.8287 116.077 75.3533 110.738 75Z" fill="#2E2E2E"/>
<path d="M101.723 98.6137C99.1559 97.3476 90.3161 92.5189 89.9077 86.7185H84.4521C84.8606 95.3749 98.4557 102.53 101.694 104.12V98.6137H101.723Z" fill="#2E2E2E"/>
<path d="M114.91 86.7185C114.531 92.5189 105.662 97.3476 103.095 98.6137V104.12C106.333 102.53 119.957 95.3749 120.337 86.7185H114.91V86.7185Z" fill="#2E2E2E"/>
</svg>
