<svg version="1.0" xmlns="http://www.w3.org/2000/svg" width="1066.667" height="168" viewBox="0 0 800 126"><path d="M420 2.6c0 2.6-3.3 6.3-5.7 6.4-.7 0-1.6.6-2 1.3-.4.8-2 2.2-3.5 3.2-3 1.9-3.8 3.8-1.2 2.8 1.5-.5 1.5-.4 0 2-1.7 2.5-1.7 2.6.6 2.9 1.8.2 2.3.9 2.1 3.1-.2 2.5.1 2.8 2.5 2.5 1.7-.2 2.8-1 3-2.2.3-1.1 0-1.6-.7-1.2-.6.4-1.1 0-1.1-.8 0-.9.5-1.6 1-1.6.6 0 1-.7 1-1.5s.5-1.5 1-1.5c.6 0 1 .7 1 1.5s.5 1.5 1 1.5c.6 0 1 .7 1 1.6 0 .8-.4 1.2-1 .9-.5-.3-1 .1-1 .9s1.4 2.2 3.2 3c3.7 1.9 3.8 1.9 3.8.6 0-.6-.6-1-1.4-1-.9 0-1.2-.7-.9-2 .3-1.1 0-2-.6-2s-1.1-.9-1.1-2.1c0-1.1.5-1.7 1-1.4.6.3 1-.1 1-.9 0-1 .9-1.6 2.1-1.6 1.5 0 1.9.4 1.5 1.6-.4 1.2-.2 1.5.9 1 1-.3 1.5.1 1.5 1.4 0 1-.7 2-1.6 2.2-1.3.3-1.3.6-.1 2.2 1.6 2.2 4.7 1.6 4.7-.9 0-.9-.4-1.3-1-1-.5.3-1-.1-1-.9 0-.9.5-1.6 1-1.6.6 0 1-.7 1-1.5s.5-1.5 1-1.5c.6 0 1 .7 1 1.5s.5 1.5 1 1.5c.6 0 1 .7 1 1.6 0 .8-.4 1.2-1 .9-.5-.3-1 .3-1 1.4 0 1.4.6 2.1 1.9 2.1 1.5 0 1.9-.6 1.8-2.6-.1-1.9.3-2.7 1.6-3 1.1-.1 1.6.2 1.3.9-.2.7-1 2.8-1.6 4.8l-1.2 3.6h-13.7c-7.5-.1-13.9-.4-14.2-.9-.3-.5-3.2 2.6-6.5 6.9-7.1 9.2-8.7 10.1-8.3 4.7.3-5.5-1.2-18.3-2.2-19-.5-.3-.9-2.1-.9-4 0-3-.3-3.4-2.2-3.3-6.1.5-7.6 0-8.3-3.1-.4-1.7-1.3-3-2.1-3-1 0-1.2.5-.7 1.2.4.7.8 1.5.9 1.8 1.1 3.7 1.8 4.9 3 5.4.8.3 1.4.1 1.4-.4 0-1.8 2.2-1 2.7 1 .3 1.1.9 2 1.4 2 .5 0 .9-.9.9-2s.5-2 1-2c.6 0 1 1.6 1 3.5 0 2.9-.4 3.5-2.2 3.6-1.3 0-3.2.4-4.3.9-1.4.6-.7.8 2.5.7l4.5-.2v7.3c0 5.1.3 7.1 1.2 6.8.8-.3 1.1.7 1 3-.1 1.8-.6 3.4-1 3.4-.5 0-.5.4-.2 1 1.6 2.6 5.1.8 9.3-5 4.2-5.8 7-7 5.8-2.7-.3 1.3.1 2.5 1.2 3.3 1.5 1.1 1.4 1.2-1 1.1-1.4-.1-2.3-.6-2-1.2.3-.6-.2-.4-1.1.4-.9.7-1.7 1.9-1.7 2.6 0 .6-1.1 3.4-2.5 6.1-2.9 5.7-3 6.1-1 4.4 1.3-1 1.5-.9 1.5.9 0 1.6.6 2.1 2.6 2.1 1.9 0 2.5.4 2 1.5-.3.8-.2 1.5.3 1.5s1.1-2.5 1.3-5.5c.3-3.1.9-6 1.5-6.6.6-.6.8 1.2.5 5.3-.3 5.5-.2 6.1 1 4.5 1.1-1.4 2.5-1.8 6.8-1.5l5.5.3.3 9.8c.2 8.3 0 9.7-1.3 9.7-3.2 0-6.5-4.6-6.5-9.1 0-3.3-.3-3.9-1.3-3-1 .8-1.7.7-2.5-.1-.9-.9-1.2-.8-1.2.6 0 2.1-.1 2.1-10.5-2-3.8-1.4-8.6-2.7-10.5-2.8-1.9 0-4-.4-4.7-.9-.7-.5-1-.1-.6 1.1.3 1.2-.4 2.2-2.2 3-4.2 1.9-8.6 1.4-15.3-1.8-3.5-1.7-7.4-3-8.5-3-5.1 0-12.7 7.3-14.1 13.5-.4 1.6-1.5 3.9-2.4 4.9-1.6 1.8-1.6 1.9.1 1.3 1.4-.5 1.7-.1 1.7 2.2 0 2.4-.4 2.8-2.5 2.6-1.4-.2-2.5.1-2.5.6s1.1.9 2.5.9 2.5.6 2.5 1.3c0 5 11 6.6 32.5 4.7 7.7-.7 14.5-1.2 15.2-1.3.7 0 1-.4.7-.9-.4-.5.4-2 1.5-3.2 1.8-1.9 1.9-2.4.7-2.9-1-.4-1.4-1.9-1.3-5.4.2-4.1-.1-5-2.2-6.1-3.1-1.6-3.7-1-1.2 1.2 1.5 1.4 1.8 2.7 1.4 7.9-.5 6.1-2 9.6-3 6.9-.4-1-.8-1-1.7.3-1.7 2.3-21.3 4-31.1 2.7-8.8-1.2-10.5-2.3-10.5-6.7 0-3.3 0-3.3 4-2.8 3.5.5 4 .4 3.4-1.2-.6-1.5-.4-1.6 1.4-.6 1.1.6 3.1 1.1 4.4 1.2 2.3.1 2.3.1-.2.9-3.4 1.2 15.8.2 24.5-1.2 3.9-.7 6.2-1.3 5.3-1.6-1-.2-1.8-1.2-1.8-2.2 0-1-.6-2.1-1.2-2.3-1-.4-1-.8.1-1.5.8-.6.9-1.2.3-1.6-1.4-.8-2.5 2.5-1.2 3.8 1.6 1.6 1.2 4.6-.6 4.6-.9 0-2.2-.8-2.9-1.7-1.1-1.5-1.3-1.5-1.9.5-.7 2-1.4 2.2-8.2 2.2-4.1 0-9.6-.5-12-1.1-4-1-4.5-1.5-4.1-3.5.6-3.2-1.1-3.1-2.3.1-.8 2-1.6 2.5-4.5 2.5-3.8 0-4.8-1.9-1.4-2.7 1.3-.4 1.6-.8 1-1.3-.7-.3-.9-1.4-.5-2.4.7-1.7 3.7-1.7 9.7 0 .9.3 1.7.1 1.7-.4s-1.9-1.3-4.2-1.8c-2.3-.5-4.3-1.4-4.5-2.1-.6-1.7 6.7-6.3 9.9-6.3 1.7 0 4.5 1.6 7.9 4.5 2.8 2.4 5.7 4.2 6.2 3.8.5-.3-.7-1.5-2.7-2.5-4.7-2.4-4.2-3.4.7-1.3 4.7 1.9 8.1 1.9 12.4-.2 3.3-1.5 3.6-1.5 4.5 0 .5.9 1.7 1.7 2.6 1.6 1.4 0 1.4-.2-.2-.8-1.9-.7-1.9-.8-.1-1.5 1.8-.6 10.5 2.1 10.5 3.3 0 .3-1.4 1.2-3.1 2-1.6.7-2.8 1.5-2.5 1.8.2.2 1.3 0 2.5-.6 1.3-.7 2.2-.8 2.6-.1.3.5 1.1 1 1.6 1 .6 0 .8-.4.4-.9-.3-.5-.1-1.2.4-1.6.6-.3 1.5.3 2 1.4 1.2 2.1 1.5 4.8.5 3.8-.8-.8-4.4 2.5-4.4 4 0 2 1.8 1.5 2.5-.6.6-2.1 3.1-3.4 4.6-2.5 1.5.9 1 2.4-.7 2.4-1.4 0-1.4.1 0 1.6.9.8 1.6 1.8 1.7 2.2.2 1.7 1 5.6 1.2 5.8.1.1 1.3-.6 2.6-1.7 2.3-1.9 2.3-1.9.2-1.9-1.2 0-2.1-.5-2.1-1 0-.6.6-1 1.2-1 .7 0 .3-.7-.8-1.5-1.5-1-2-2.2-1.7-4 .3-1.3.9-2.2 1.4-1.9.5.3.6-.2.3-1.1-.5-1.2-.9-1.3-2-.4s-1.4.9-1.4 0c0-.6 1.2-1.6 2.6-2.1 3.2-1.2 4.4-1.3 2.5-.1-1.2.8-1.2 1.2-.2 2.5 1.1 1.3 1 1.8-.3 3.2-1.6 1.5-1.6 1.8 0 3.5.9 1 2.4 2.1 3.3 2.4 1.7.5 2.1 6.1.6 8.6-.5.7-.3 1 .6.7 1-.3 1.5-2.5 1.7-7.2.3-7 2.2-8.5 2.2-1.6 0 3.9 1.6 5.5 4.5 4.4 1-.4 1.5-2 1.5-4.5 0-2.1.5-3.9 1-3.9.6 0 1 2 1 4.4 0 3.6-.5 4.7-2.6 6.1-1.4.9-2.3 1.9-2 2.2.3.3 1.1.1 1.8-.4 1.3-1.1 13.1-.8 14.9.3.6.3 1.6.1 2.4-.6.9-.7 1.5-.8 2 0 .7 1.2 4.5 1.4 4.5.2 0-.7-6.3-4.2-7.5-4.2-.2 0-.2.7.1 1.5.7 1.7-1.3 2-4.9.6-3.2-1.2-4.3-4.2-2.1-5.8.9-.7 1.4-1.8 1.1-2.5-.2-.8.4-2.4 1.4-3.7l1.9-2.3 1 2.8c1 2.4.7 3-2.2 5.6l-3.3 2.8 3-1.2c1.7-.7 3.3-1.7 3.6-2.1 1-1.3 4.9.2 4.9 1.9 0 .8.5 1.4 1 1.4.6 0 1.5 1.1 2 2.5s1.5 2.5 2.2 2.6c.7 0 4.9.3 9.3.7 4.4.3 15 .6 23.5.7 12.8 0 16.1-.3 18.6-1.7 2.8-1.5 3.3-1.6 4.4-.3 1.6 1.9 4.1 1.9 6.6 0 1.8-1.4 1.7-1.4-1.3-1.5-2.4 0-3.1-.4-2.7-1.4.3-.8 1.5-1.6 2.7-1.8 2.9-.4 6.8 1.4 6.3 2.9-.7 1.7.5 2.3 2.5 1.2 1.5-.7 1.9-2.1 1.9-5.9 0-2.8-.4-5-1-5-.5 0-1 1.3-1 3 0 2.9-1.3 4-2.5 2-.3-.5-1.9-.7-3.5-.3-2.9.5-3 .4-2.4-2.5 1.1-5.7-.1-7.9-4.7-8.5-5.6-.7-9-3.4-10.7-8.6-.8-2.3-2-4.5-2.8-4.8-.8-.3-1.4-1.4-1.4-2.5 0-1.9-2.1-4.8-3.5-4.8-.4 0-2.1-.6-3.8-1.4-1.8-.7-5.1-2.1-7.4-3.1-2.4-1-4.3-2.2-4.3-2.7 0-.4-.9-.8-2.1-.8-1.6 0-1.9-.4-1.4-2 .3-1.1.2-2-.3-2-.6 0-1.2.5-1.4 1.2-.2.6-1.2.9-2.1.5-1-.4-1.4-1.2-1.1-2.2.3-.8.1-1.5-.5-1.5s-1.1.7-1.1 1.5c0 1.2-.7 1.4-2.7.9-3.6-.8-4.8-2-3.2-3 .7-.4 1.4-.3 1.7.4.6 1.8 1.9 1.4 2.5-.8.3-1.1 2.1-2.9 4.1-4.1 2-1.1 3.5-2.8 3.5-3.7-.1-1.5-.2-1.5-.6 0-.5 2.1-4.3 2.4-6.2.5-1-1-1.1-.9-.7.3.8 2.4-2.7 5.9-5.6 5.6-1.8-.2-2.5.2-2.4 1.3 0 .9-.6 1.6-1.4 1.6-.8 0-1.4-.8-1.4-1.7.1-1-.3-1.5-.8-1.2-.5.4-.8 1.5-.5 2.5.3 1.1 0 3.5-.6 5.4-1 3.4-1.1 3.5-3.1 1.8s-2-1.7-.6.1c.8 1.1 1.5 3 1.5 4.4 0 1.4.6 2.7 1.3 3 1 .3 1.3-.4 1.2-2.4-.1-1.6-.1-3.2 0-3.7.5-1.5.8-2.8.9-4.2 0-.8.8-1.5 1.7-1.5 1.3 0 1.4.3.5 1.3-.6.8-1.2 4-1.3 7.3-.3 5.7-.2 5.9 2.3 6.2 2.4.3 2.7-.1 3.1-3.2.4-3.6-.7-3.8-1.4-.3-.1 1-.7 1.7-1.3 1.5-1.6-.5-1-7.4.9-10.3 1.6-2.4 2.2-2.6 5.4-2 2.1.3 8.2 2.8 13.7 5.5s11.3 5.2 12.9 5.6c2.2.5 2.7 1.1 2.2 2.7-.3 1.2 0 2.7.6 3.4.8 1 .3 1.3-2.3 1.3-3.8.1-10.8 2.8-7.5 2.9 1.9.1 1.9.1 0 2.3-1.2 1.4-.3 1 2.2-1 5.2-4 8.4-4.2 8.4-.7 0 1.4.5 2.5 1 2.5.6 0 1-.7 1-1.6 0-.8.5-1.2 1-.9 1.8 1.1 1.1 4.5-.8 4.5-2.6 0-3.4 1.1-2 2.7.8 1 .8 1.7.1 2.4-.8.8-1.4.5-2.2-1-.7-1.2-1.7-2.1-2.3-2.1-.7 0-.6.7.4 1.7.8 1 1.9 3 2.6 4.5 1.4 3.3 3.3 3.8 2.4.6-.4-1.7-.2-2 1.3-1.4 1.5.5 1.6.4.6-.8-1.4-1.6-.6-5.6 1.1-5.6.6 0 2.5 1.3 4.3 2.8 2.8 2.6 3 3 1.6 4.1-1.3 1-1.3 1 .4.3 1.1-.5 3.7-.7 5.8-.4 3.7.4 3.8.5 3.5 4.1-.3 3.8-3.2 5.6-4.9 2.9-.7-1-.9-.9-.9.4 0 1 .7 1.8 1.6 1.8 1.7 0 1.6 3.5-.1 3.5-.6.1-3.5.7-6.5 1.5-7.2 1.9-30.3 2-39 .1-7.9-1.6-14.8-5.8-12.6-7.5 2.4-1.9 2.3-6.2-.2-8.9-2.4-2.6-2.2-6.7.3-4.7 2.1 1.8 2.6-.6.6-2.4-1.8-1.7-2-1.6-3.1 1.9-1.7 5.1-2.3 3.7-.8-1.9 1.3-5 4.4-6.5 5-2.4.4 2.9 1.8 2.9 2.9.1.7-2 .4-2.3-4.9-3.4-5.4-1.1-5.7-1-7.5 1.2-1.4 1.8-1.7 3.3-1.3 6.2.4 2.5.3 3.6-.4 3.2-.5-.3-1 .1-1 1 0 1-.7 1.5-1.7 1.3-2.5-.5-2.1-5 1.1-12.1 2.1-4.8 3.1-5.9 5.6-6.3 1.9-.4 3-1.3 3-2.3 0-3.2-2.9-12.3-4.4-14-.9-1-1.6-2.1-1.6-2.4 0-1.5 3.5-.6 5.8 1.5l2.5 2.3-1.8-2.8c-1.2-1.9-2.6-2.7-4.6-2.7-4.1 0-4.4-1.8-1.4-9.1 2.5-6.3 2.7-10.9.3-10.9-.9 0-.9.3 0 1.2 1.4 1.4 1.6 2.8.3 2.8-.5 0-1.3-1-1.6-2.3-.8-2.5-6-7.7-7.8-7.7-2.5-.1-4.7-2.8-4.7-5.9 0-2.9-.2-3.1-3.5-3.1-3.1 0-3.5.3-3.5 2.6zm5 1.3c0 1.1-.5 2.3-1.1 2.7-1.5.9-3.3-1.2-2.6-3 .9-2.3 3.7-2 3.7.3zM423.7 9c2 0 2.3.3 1.4 1.4-.9 1.1-.4 1.4 2.4 1.9 2 .3 5.2 1.6 7.1 2.8 3.8 2.3 4 3.8.3 1.8-1.2-.6-4.5-1.5-7.3-1.8-4.1-.5-5-1-4.8-2.4.2-1.3-.4-1.7-2.8-1.7-2.9 0-3.8-.9-2.3-2.4.4-.3 1.3-.4 2.1-.1.7.3 2.5.5 3.9.5zm10.3 3.2c0 .6-.7.7-1.7.3-1-.4-2.6-1-3.5-1.2-1.8-.5-2.3-1.5-1.2-2.5.8-.8 6.4 2.1 6.4 3.4zm-20.1.9c-2.7 2.1-3.9 2.4-3.9.9 0-.6.6-1 1.4-1 .8 0 1.7-.7 2-1.6.3-.8 1.1-1.2 1.7-.8.8.5.4 1.3-1.2 2.5zm7.1.4c0 .8-.8 1.5-1.7 1.5-1 .1-3.5.7-5.5 1.4-4.9 1.8-3.7-.1 1.6-2.5 5-2.3 5.6-2.3 5.6-.4zm16.5.5c.3.5.2 1-.4 1-.5 0-1.3-.5-1.6-1-.3-.6-.2-1 .4-1 .5 0 1.3.4 1.6 1zm-.6 19.4c2.6 1.6-.5 2.4-5.4 1.5-4.7-1-17.8-.5-21 .8-.9.3-1.5-.1-1.5-1s1.1-1.8 2.8-2c4.2-.8 23.6-.2 25.1.7zm-14.1 11.9.3 8.7H411v-8c0-7.4.1-8 2.3-8.5 3.8-.8 7.2-1.2 8.2-1 .6.1 1.1 4.1 1.3 8.8zm9.7-7.8c2.4.5 2.5.8 2.5 9.1v8.5l-5.2-.3-5.3-.3-.3-7.9c-.4-9.7 0-10.8 3.3-10.1 1.4.3 3.6.7 5 1zm8 7.4c-.3.6-1.1 1.1-1.7 1.1-.6 0-.6-.6.2-1.5 1.4-1.7 2.6-1.3 1.5.4zm-32.9.6c1.8 1.3 1.8 1.4-.4.8-1.2-.3-2.5-.9-2.8-1.4-.8-1.4 1-1.1 3.2.6zm-.6 2.4c0 .5-.9.7-2 .4-1.1-.3-2-.7-2-.9 0-.2.9-.4 2-.4s2 .4 2 .9zm31.7 2.1c.3 1.7 1.2 3 2 3s1.1.4.8 1c-1.1 1.8-3.3 1-3.9-1.4-.3-1.3-.9-3.1-1.2-4-.3-.9-.1-1.6.5-1.6s1.4 1.3 1.8 3zm5.3.4c0 .9-.7 1.2-2 .9-1.1-.3-2-.9-2-1.4 0-.5.9-.9 2-.9s2 .6 2 1.4zm-37.8.8c-.9.9-1.5.9-2.4 0-.9-.9-.7-1.2 1.2-1.2s2.1.3 1.2 1.2zm28.8 7.6c0 7.6-7 20.5-10.1 18.6-1-.6-1.2-19.7-.2-20.7.3-.4 2.8-.7 5.5-.7 4.6 0 4.8.1 4.8 2.8zm7.5 6.2c-.3.5-1.1 1-1.6 1-.6 0-.7-.5-.4-1 .3-.6 1.1-1 1.6-1 .6 0 .7.4.4 1zm3.2 11.6c-.2 1.3 0 2.4.4 2.4.5 0 .9-.8 1-1.8 0-1.4.2-1.4.8.3 1 2.4 1.2 2.1-2.3 2.9-2.4.6-2.7.4-2.2-.9.3-.9.2-1.3-.4-1-1.3.8-2.4-2-1.7-3.9.4-.9 1.4-1.2 2.7-.9 1.7.4 2.1 1.2 1.7 2.9zm-8.7-1.1c0 .2-.7 1.1-1.5 1.9-1.3 1.2-2 1.3-3.5.4-2.5-1.6-.8-3.7 2.5-3 1.4.2 2.5.6 2.5.7zm-21 1c0 .9-.9 1.5-2.1 1.5-1.8 0-1.9-.2-.9-1.5.7-.8 1.6-1.5 2.1-1.5s.9.7.9 1.5zm19 4.7c0 1.2-3.5.9-4.8-.4-2.1-2.1-1.3-2.7 1.8-1.5 1.7.6 3 1.5 3 1.9zm-85.7-1.5c-.7.2-1.9.2-2.5 0-.7-.3-.2-.5 1.2-.5s1.9.2 1.3.5zM393 84c0 .5-.4 1-1 1-.5 0-1-.5-1-1 0-.6.5-1 1-1 .6 0 1 .4 1 1zm39.5 5c.3.5-.1 1-.9 1s-1.8-.5-2.1-1c-.3-.6.1-1 .9-1s1.8.4 2.1 1zM22 3.7c-.8.4-6.2 4.1-11.9 8.4L-.3 20l21.4.2 21.4.3.3 26.1.2 26.1-6.5.6c-8.7.6-18 5.2-23.4 11.4-4.7 5.2-5.4 7.9-1.8 6.9 4.5-1.2 33.2-1.8 38.7-.8l5.5 1 6.1-6.3C67.1 79.9 75 75 82.3 72.6c1.6-.5 1.7-2.9 1.7-30.6 0-32.3-.3-34.4-5.3-37.2-1.6-1-9.3-1.4-28.7-1.5-14.6-.1-27.2.1-28 .4zm38.5 26.4c.8 10.4.4 11.1-6.1 13.4-2.9 1-3.3 1.4-1.6 1.5 1.3 0 3.6-.7 5.2-1.5l3-1.6v4.6c0 4.8-.4 5.2-3.4 3-2.5-1.9-5.9-1.9-9.6 0l-3 1.6V46c0-3.8.3-4.9 1.3-4.3.6.4.4-.5-.5-2-1.3-1.9-1.8-4.7-1.8-10 0-4.1.3-7.7.7-8 .3-.4 3.9-.7 7.8-.7h7.2l.8 9.1zm-1.8 22.1c2.1 2 2.3 2.9 2.3 13.5 0 6.2-.3 11.3-.7 11.2-.5 0-3.9-.8-7.8-1.8l-7-1.9-.3-9.5c-.3-9.3-.2-9.6 2.4-11.6 3.5-2.7 8.1-2.7 11.1.1zM184 4.3c-4.3 2.2-7.2 7.6-6.7 12.4.5 5.1 3.1 9.3 5.5 9.3 3.9-.1 12.2-10.3 12.2-15 0-5.6-6-9.3-11-6.7zM605.2 8c-4.6 2.8-8.7 5-9.1 5-.5 0-4.6-2.1-9.2-4.6l-8.4-4.7-3.5 2c-1.9 1-6.9 3.8-11.1 6.1l-7.5 4.1-7.7-4.4C544.5 9 540.9 7 540.6 7 539.2 7 524 17.4 524 18.4c0 .6 3 3.1 6.5 5.5l6.5 4.5-.2 24-.3 24.1-3.2 2c-1.8 1.1-3.1 2.4-3 3 .2.5 5 3.4 10.7 6.4l10.4 5.4 6.3-3.4c3.5-1.9 7.3-4.2 8.6-5.1l2.2-1.7-2.2-1.6c-2.1-1.5-2.3-2.3-2.3-12.6V58h10v8.5c0 8.4 0 8.5-3 10-1.7.9-2.8 2-2.5 2.5.8 1.3 23.1 13 24.8 13 1.6 0 16.7-9 16.7-9.9 0-.3-1.6-1.6-3.5-2.9L603 77V56.9l4.5-6.7c2.5-3.7 4.5-7.2 4.5-7.9 0-.9-1.5-1.3-4.5-1.3H603V18l4.3 2.1c8.2 4.2 7.7 2 7.7 32.1 0 29.7 0 30 6.5 35.6 5.7 5.1 7.4 5.1 15.4-.5 3.9-2.6 7.1-5.2 7.1-5.8 0-.5-1.7-2.6-3.7-4.8l-3.8-3.8-.3-29.4-.3-29.4-9.9-5.5C620.6 5.5 615.6 3 614.8 3c-.7 0-5 2.3-9.6 5zM600 28c0 7.3-.4 12-1 12s-1-4.4-1-11.3c0-10 .4-12.7 1.7-12.7.2 0 .3 5.4.3 12zm-39 19c0 26-.2 30-1.5 30s-1.5-3.9-1.5-29.3c0-16.2.3-29.7.7-30 .3-.4 1-.7 1.5-.7.4 0 .8 13.5.8 30zm12.4-22.5c.3.9.6 4.5.6 8.1 0 6.8.4 5.9-8.7 18l-2.2 2.9V35.7L563 18l4.9 2.4c2.7 1.4 5.1 3.2 5.5 4.1zm26.6 41c0 5-.4 8.5-1 8.5s-1-3.5-1-8.5.4-8.5 1-8.5 1 3.5 1 8.5zM737.1 6.5c-3.5 4.1-4.1 9.2-1.7 15 2.1 5 4.9 4.6 10.8-1.5 4.2-4.4 4.8-5.5 4.8-9.3 0-5.4-2.2-7.7-7.2-7.7-2.9 0-4.2.7-6.7 3.5zM776 9.8c-14.3 4.6-15.1 5.1-11.8 6.8 1.6.8 2.8 2.5 3.2 4.5.3 1.7.6 14.6.6 28.5 0 24.2-.1 25.5-2 27.1-1.1 1-2 2.2-2 2.8 0 .6 4.8 3.5 10.8 6.4l10.7 5.3 7.3-5 7.3-5-4.3-2.9-4.3-2.9-.3-34.7c-.2-32.2-.4-34.7-2-34.6-.9 0-6.9 1.7-13.2 3.7zM218.6 10.9c-6.6 2-12.1 4.2-12.4 4.9-.2.7.1 1.2.6 1.2.6 0 1.8.7 2.6 1.6 1.4 1.3 1.6 5.5 1.6 30 0 27.3-.1 28.4-2 29.6-1.1.7-2 1.6-2 2 0 .4 4.9 3.3 11 6.3l11 5.5 6.7-4.6c3.8-2.5 6.9-5 7.1-5.4.2-.5-1.5-1.8-3.7-3.1l-4.1-2.3V7l-2.2.1c-1.3 0-7.7 1.7-14.2 3.8z"/><path d="M449 10.4c0 .8 2.4 3.1 5.3 5.2 2.8 2.1 5.4 3.9 5.6 4.1.8.6-3.4 4.5-5.6 5.4-1.3.5-2.3 1.5-2.3 2.4 0 .8-.8 1.5-1.7 1.5-1.2 0-1.4.3-.6 1.1 1.2 1.2 3.9.2 4.5-1.6.5-1.6 6.8-6.8 6.8-5.6 0 .6.5 1.1 1.1 1.1.8 0 .8-.4 0-1.3-.7-.9-.7-1.7 0-2.4s-.1-1.6-2.7-3c-2.1-1.1-4-2.6-4.3-3.4-.4-1.2-.2-1.2 1.2 0 1 .7 1.7 1 1.7.7 0-.4 1.4.2 3 1.4l3 2.1.8-2.2c.9-2.2.9-2.2 3.8 1 1.6 1.8 3.7 4.6 4.7 6.4 1.9 3.5 2.3 11.1.7 15.2-.7 1.7-.7 2.4 0 2 .6-.3 1-1.3 1-2.1s.4-1.4.9-1.4.7-.9.4-2c-.3-1.1-.1-2 .5-2 .5 0 1.3 1.6 1.6 3.5.4 2.1 2.1 5 4.2 7l3.5 3.5h9.5c8.9 0 9.6.1 9.2 1.8-.5 1.9.5 2 7.2.5l2.5-.5-2.3-.9c-1.2-.4-3-.5-4-.2-1.5.6-1.5.5-.3-1 1.2-1.6.5-1.7-9.6-1.7-9.5 0-11.4-.3-13.6-2-4.8-3.8-4.3-11.5.9-13.9 1.4-.6 5.7-1.1 9.7-1.1 7.3 0 11.7-.7 11.7-1.9 0-.9-20.3.4-22.1 1.4-.7.4-2.4 1.7-3.6 2.8-3 2.7-5.5 1.6-5.1-2.2.1-1.6-.4-3.6-1.1-4.5-.8-.9-1.1-2-.7-2.4.4-.4 1.6.4 2.7 1.7 1.3 1.6 1.9 1.9 1.9.8 0-2.1-5.4-7.7-7.5-7.7-.9 0-2.8-.9-4.2-2-3.1-2.4-5.8-2.7-4.9-.5.8 2.1-.2 1.9-5.9-1.5-5.5-3.3-7.5-3.7-7.5-1.6zm4 1.1c2 2.4.6 2.8-1.5.5-1-1.1-1.3-2-.8-2 .6 0 1.6.7 2.3 1.5zm21.6 8.2c-.8.8-3.6-.5-3.6-1.7 0-.7.6-.7 2.1 0 1.1.7 1.8 1.4 1.5 1.7zM375.5 14.8c-2 1.4-4.6 6.3-3.9 7.3.3.6 1.4-.3 2.5-2 1-1.7 2.4-3.1 3-3.1.8 0 .9.4 0 1.3-1 1.3-.6 2.7.9 2.7.6 0 .7-3.7.2-6.3-.2-.9-1.4-.9-2.7.1zM382 20c0 .6.7 1 1.5 1s1.5-.2 1.5-.4-.7-.6-1.5-1c-.8-.3-1.5-.1-1.5.4z"/><path d="M375 22c-.4 2.1-.7 5.1-.9 7.9l-.1 2.5-2-2.2c-1.2-1.2-2.6-2.2-3.3-2.2-.6 0-.1.7 1.1 1.6 2.9 2 3.1 9.1.3 12.5-1.8 2.3-2.6 2.4-16.5 2.7-8.6.2-14.4.7-14.1 1.3.9 1.3 27.2 1.1 29.7-.2 2.3-1.2 4.8-6.6 4.9-10.6 0-2.5.1-2.6 1-.8.7 1.5.8 1.3.3-1.2-.3-1.8 0-3.4.6-3.8.7-.5.8-1.1.1-1.9-.7-.9-.2-1.7 1.9-3 1.7-.9 3-2.2 3-2.8 0-.6-.8-.4-1.8.5-2.3 2.1-2.9 2.1-3.5-.1-.4-1.3-.5-1.4-.7-.2zM18.8 28.2 9 33.3v20.1C9 73 8.9 73.6 6.5 77.9L4 82.3l3-.6c4.1-.9 12.8-6.6 16.7-11 6.5-7.4 6.8-8.4 7.1-29 .3-15.1.1-18.7-1-18.6-.7 0-5.7 2.3-11 5.1z"/><path d="M349 26.7c0 .9-.8 1.1-2.5.7-1.9-.5-2.5-.2-2.5 1 0 1.4-.4 1.5-2 .6-1.8-.9-2-.8-2 1.5 0 5.2 9.9 8.7 17.2 5.9 6.8-2.6 11.7-2.9 12.4-.9.4.9.2 2.7-.4 4.1-1.1 2.4-1.3 2.4-14.7 2.4-12.4 0-13.5-.1-13.5-1.8 0-1.5-.6-1.8-3-1.4-1.6.2-2.7.8-2.4 1.4.3.5 1.5.6 2.6.2 1.7-.5 2-.3 1.5 1-.6 1.4.9 1.6 13.8 1.6 13.7 0 14.5-.1 15.9-2.2 2.9-4.1 1.5-8.8-2.6-8.8-1 0-4.7.9-8.1 2.1-6.7 2.2-11.3 2.1-15.3-.6-2.8-1.8-3.3-4.1-.6-3 .9.4 2.6 1 3.7 1.3 2 .5 2 .5.1-1.7l-1.9-2.1 3.1.6c2.1.4 3.2.3 3.2-.5 0-.7 2.2-1.1 5.8-1.2 6.8-.1 5.9-.6-2-1.2-4.4-.3-5.8 0-5.8 1zM687 25.7c-15.6 5-33.2 18-38.8 28.8-2.2 4.1-2.7 6.4-2.7 12.5 0 12.6 5.3 20 17 23.5l4.6 1.4 7.5-5.9 7.5-6 12 6.1 12.1 6 7.4-5.6c4.1-3 7.4-6.1 7.4-6.8 0-.6-2.3-2.7-5-4.6l-5-3.3V57.4c0-13.3.1-14.4 2-15.4 1.1-.6 2-1.6 2-2.3 0-.7-5.8-4.1-12.8-7.7-14.5-7.4-13.2-6.9-15.2-6.3zm-7.5 17.1 5 3.8.3 8.4c.2 4.7 0 11.8-.3 15.7-.6 6.8-.8 7.3-3 7.3-3.6 0-11.7-6.2-14.9-11.4-3.5-5.5-4.6-14.7-2.6-19.6 1.5-3.5 6.4-8 8.8-8 .9 0 4 1.7 6.7 3.8zM128 27.4c-12.8 4.7-26.2 14.1-32.6 22.9-5 6.8-6.4 10.9-6.4 19.2.1 11.9 7 20.4 18.7 22.9 2.9.7 4 .1 10.1-4.8 3.8-3.1 7.3-5.6 7.8-5.6s6.2 2.5 12.6 5.6l11.7 5.7 7-5.2c4.5-3.3 7.1-6 7.1-7.2 0-1.2-1.9-3.1-5-5.1l-5-3.3V58.9c0-13.1.1-13.6 2.5-15.9 1.3-1.2 2.2-2.7 1.9-3.2-.5-.8-26-13.9-26.6-13.7-.2 0-1.9.6-3.8 1.3zm-6.2 14.7c2.6 1.8 5.2 3.7 5.7 4.4.6.7.8 7 .5 16.6-.4 13.7-.7 15.4-2.3 15.7-2.4.5-9.8-4-13.5-8.2-5.4-6.1-7.7-17.8-4.7-23.5 1.5-3 7-8.1 8.6-8.1.6 0 3.1 1.4 5.7 3.1zM250.1 30.5c-8.8 6-8.7 5.8-4.1 8.9l4 2.6v42.6l-2.9 4c-1.6 2.1-3.4 5.9-4.1 8.3-5.4 20.1 20.9 30.4 45.5 17.8 2.5-1.2 6.1-2 9.5-2.1l5.5-.1v3.4c0 4.2-3.4 7-9.5 7.8-4 .6-4.1.7-2 1.5 3.6 1.3 9.2 0 14.4-3.2 10.6-6.8 10.9-20.8.4-25.9-7-3.3-15.2-2.9-27.9 1.5-13.1 4.6-21.7 5.1-26.6 1.6-5.6-4-4.1-11.2 3.1-14.6 6-2.8 12.4-2.1 22.1 2.6 7.9 3.7 9.5 4.2 16.4 4.2 8 0 10.7-.9 15.4-5.2l2.7-2.6V45.1l4-3.2c2.2-1.8 3.7-3.6 3.4-4-1-1.7-19.2-11.9-21.1-11.9-2 .1-13.4 7.9-14 9.6-.2.6 1.2 2.1 3.2 3.2l3.5 2.1v20c0 18.8-.1 20.1-1.9 21.1-3.2 1.7-8.6 1.2-11.5-1.1l-2.6-2V60c0-18.4.1-18.9 2.2-20.4 2-1.4 2.1-1.8.8-3-2.2-2.1-18.4-10.6-20.1-10.5-.8 0-4.3 2-7.8 4.4zM478 27.5c.7.9 1.5 1.3 1.7 1.1.7-.7-.7-2.6-1.9-2.6-.6 0-.6.6.2 1.5zM385.5 28c-.3.5.1 1 .9 1s1.8-.5 2.1-1c.3-.6-.1-1-.9-1s-1.8.4-2.1 1zM508.5 27.7c-3.9.9-3.8 2.2.1 1.7 3.8-.5 3.8-.5 1.9 1.1-2 1.7-1.9 1.7.7 1.1 1.4-.3 3.3-.9 4.2-1.2 2.9-1.1 1.7 1.6-1.6 3.6-4.3 2.6-10.7 2.6-18.7-.1s-11.2-1.7-11 3.3l.1 3.3.7-3c.8-4 3.4-4.3 12.5-1.4 8.4 2.6 7.2 1.9 8 4.6.7 2.2.5 2.2-8.1 2.6l-8.8.3 9.8.2c9.3.2 9.8.1 9.2-1.7-.5-1.7-.2-1.8 3-1.1 2 .5 4.4 1.5 5.4 2.4 1 .9 2.2 1.6 2.7 1.6.6 0 1.9.7 3 1.6 1.8 1.5 1.8 1.5-.3.5-1.2-.6-3-1.1-4-1.1-1.3 0-.8.6 1.5 2 4.3 2.6 4.5 7.2.5 9.4-2.4 1.3-2.5 1.5-.8 1.6 1.1 0 3.1-.7 4.4-1.6 1.8-1.3 2.2-2.4 1.9-5-.5-4.1.9-3.1 1.5 1.1l.4 3 .2-3.2c.1-3.4-4-9.3-6.5-9.3-.8 0-3.2-1.1-5.2-2.5s-4.7-2.5-5.9-2.5c-3.7 0-2.7-1.7 1.4-2.3 5.6-.9 12.5-8.7 7.7-8.7-.8 0-2.5.5-3.6 1.1-1.8 1-2 .9-1.5-.5.7-1.7-.6-1.9-4.8-.9zM379.5 29c-.3.5-.2 1 .4 1 .5 0 1.3-.5 1.6-1 .3-.6.2-1-.4-1-.5 0-1.3.4-1.6 1zM725.8 33.3c-4.2 2.9-7.7 5.7-7.7 6.4-.1.7 1.9 2.4 4.4 3.9l4.5 2.6v15.4c0 14.3-.1 15.5-2 16.6-1.1.7-2 1.6-2 2 0 .7 18.4 10.6 20.6 11 1.6.4 16.3-9.3 16.4-10.7 0-.6-1.8-2-4-3.3l-4-2.3V44.3l2.5-1.3c1.4-.8 2.4-1.8 2.2-2.3-.3-1-18.5-11.2-21.5-12.1-1-.3-4.9 1.7-9.4 4.7zM168.8 34.6c-4.3 3.1-7.8 5.9-7.8 6.3 0 .4 1.9 1.8 4.3 3.1 2.3 1.3 4.5 2.8 4.9 3.4.4.6.8 7.4.8 15.2 0 12.8-.2 14.3-2 15.9-1.1 1-2 2.2-2 2.6 0 1.1 18.4 10.9 20.4 10.9.9 0 5-2.4 9.2-5.2 8.3-5.8 8.2-5 .9-10.1-2.5-1.8-2.5-1.9-2.5-16.5V45.4l3.1-1.8c1.7-1 2.7-2.2 2.2-2.6-1.3-1.3-21.9-12-22.9-11.9-.5 0-4.4 2.5-8.6 5.5zM384.4 33.2c-.3.5-1 .6-1.5.3-1.7-1.1-.9 1.2 1 2.9 2.3 2.1 4.1 1.3 4.1-1.8 0-2.2-2.5-3.2-3.6-1.4zm2.6 2.3c0 .8-.4 1.5-.9 1.5-1.3 0-2.2-1.6-1.4-2.4 1.1-1.1 2.3-.6 2.3.9zM378.1 37.7c-.1 1.6 4.3 5.9 7.9 7.8 2.7 1.4 3 1.4 4-.4 1.4-2.8 1.2-3.8-.3-1.6-1.3 1.7-1.6 1.7-6-1.3-2.5-1.8-4.8-3.7-5-4.4-.4-1-.6-1-.6-.1zM330.4 42.3c-1.8 1.2-4 2.8-5 3.5-1.1.7-.1.3 2.2-.7 2.2-1.1 4.6-2.7 5.3-3.5 1.7-2 1.3-1.9-2.5.7zM328.5 46c-2.5 1-5.1 3.8-5.9 6.7-1 3.2.1 2.8 1.9-.6 1.6-3.3 4.9-4.8 6.8-3.3 1.3 1.1 3.8 1.5 7.6 1.3 2-.1 2.2-.3 1.1-1.6-.8-.9-2.1-1.3-3.2-.9-1 .3-2.9-.1-4.1-.9-1.4-.9-3-1.1-4.2-.7zM376.1 57c0 1.4.3 3.2.9 4 1.5 2.4 1.8.7.4-3-1.1-3.1-1.3-3.2-1.3-1zM379.1 57.1c0 1.5.6 3.2 1.4 3.9 1.6 1.3 2.1 0 .6-1.6-.5-.5-1.1-1.8-1.4-2.9-.4-1.6-.5-1.4-.6.6zM373.5 58c1.2 4 2.6 5.9 1.9 2.5-.4-1.7-1.1-3.5-1.6-4-.7-.7-.8-.1-.3 1.5zM467.2 59c-.7 1.1-.8 2-.3 2 .9 0 2.4-3 1.8-3.6-.1-.2-.8.6-1.5 1.6zM332.8 60.4c-2.5.7-5.8 2-7.2 2.9-2.6 1.7-2.6 1.7-2.7-1l-.1-2.8-1 2.8c-1.5 4.1.4 5.8 3.4 3 2.1-1.9 8.5-4.3 11.6-4.3 1.7 0 1.5 3.5-.2 5.3-.9.8-2.7 1.3-4.3 1.1-2.8-.4-2.8-.4-.5.8 3.2 1.6 5.1.3 7.3-5 2.1-4.9 1.8-5-6.3-2.8zM505 60.1c0 .7 2.6 1.6 10.3 3.3 1.5.4 3.7 1.6 4.8 2.7 2.4 2.4 3.5 1.9 2-1-.6-1.1-2.8-2.5-4.9-3-8.1-2.2-12.2-2.8-12.2-2zM463 62.5c-.9 1.1-2.4 1.4-4.9 1-2.7-.4-3.1-.3-1.6.4 2.6 1.3 6.5 1.3 6.5.2 0-.5.8-1.1 1.8-1.3 1.1-.2 1.3-.6.6-1.1-.7-.4-1.7 0-2.4.8zM469.8 63.7c1.8.2 4.5.2 6 0s0-.4-3.3-.4-4.5.2-2.7.4zM466 66c0 .5.5 1 1 1 .6 0 1-.5 1-1 0-.6-.4-1-1-1-.5 0-1 .4-1 1zM393 67c.8.5 2 1 2.5 1 .6 0 .3-.5-.5-1s-1.9-1-2.5-1c-.5 0-.3.5.5 1zM455.2 68.1c.2.6.8 1 1.3 1s1.1-.4 1.3-1c.2-.6-.4-1.1-1.3-1.1s-1.5.5-1.3 1.1zM461 68.6c0 1.7 2.2 1.4 2.8-.4.2-.7-.3-1.2-1.2-1.2-.9 0-1.6.7-1.6 1.6zM450.5 70.1c-.9 1.4-.2 2 2.9 2.3 1.5.2 3.6 1.2 4.8 2.2 2 1.8 2.1 1.8 1.5.1-.4-1.2-.3-1.7.4-1.5.6.2 1 .7 1 1.1-.1.4-.1 1.6-.1 2.6 0 1.3-.8 2.1-2.2 2.3-4.9.8 10.1 3.1 20.9 3.2l11.2.1-.6 2.7c-.3 1.7-.1 2.8.6 2.8.6 0 1-.3.9-.8-.1-.4.1-1.7.5-2.8.6-1.6 2-2.4 5.5-3 2.6-.4 5.3-.8 6-.7.6 0 1.2-.3 1.2-.8 0-1.5-1.8-1.9-4.5-.9-2.3.9-2.6.8-2.1-.5.3-.8.1-1.5-.4-1.5-.6 0-1 .7-1 1.5 0 1.7-4.8 2.8-11 2.3l-4.5-.3 3.5-2.2c1.9-1.3 3-2.3 2.4-2.3-.6 0-2.8 1.1-4.8 2.5-4.3 2.9-9.8 3.3-15.2 1-1.9-.8-3.2-1-2.9-.5.3.6-.1 1-.9 1-1.2 0-1.5-1-1.3-3.7.2-3.7.1-3.8-4-4.8-2.3-.6-4.5-1.3-4.9-1.8-1-1-2.2-.9-2.9.4zM365 72.5c-.7.8-.9 1.5-.6 1.5.4 0 1.4-.7 2.2-1.5.9-.8 1.1-1.5.6-1.5-.5 0-1.5.7-2.2 1.5zM327.2 73.2c-.7.7-1.2 3.4-1.2 6 0 5.9-1.8 6.4-2.2.5l-.3-4.2-.9 4.9c-.9 4.9-.2 7.6 2.2 8.4.7.2 1.2-.3 1.2-1.2 0-2.2.2-2.1 4.5 2 3.4 3.2 4 3.4 5 2 .9-1.1 1.5-1.2 2.3-.4.8.8 1 .2 1-2.1-.1-2.2-1.1-4.2-3-6.2-3.8-3.7-3.3-6.2 1.2-7 2.6-.4 3.1-.7 1.8-1.3-.9-.4-2.7-.6-4-.4-3.2.4-3.9 6.4-1 8.4 2.8 1.9 3.5 5.4 1.1 4.9-1.3-.3-1.9.2-1.9 1.3-.1 1.3-.7 1-2.6-1.2-2.3-2.7-2.6-3.6-2.2-9.3.2-3.5.4-6.3.3-6.3-.1 0-.6.5-1.3 1.2zM372.9 74.6c-2.3 2.5-2.3 2.6-.2 1.3 1.3-.7 2.5-1.9 2.7-2.6.8-1.9.2-1.6-2.5 1.3zM379 73.2c0 .9.5 2 1.1 2.3 1.7 1.1 1.8.2.3-1.9-1.2-1.7-1.4-1.7-1.4-.4zM397 73.2c0 .6-.6.8-1.4.5-.8-.3-1.6.2-1.9 1.4-.5 1.8-.2 2 2.6 1.4 1.8-.4 3.8-1.3 4.5-2 1.1-1 .9-1.3-1.2-1.7-1.4-.3-2.6-.1-2.6.4z"/><path d="M480.2 75.2c-.6.6-3.2 1-5.7 1-5.1-.2-6.9.4-5.9 2 .4.7.9.6 1.4-.2.6-.9 1.3-.9 2.9-.1 1.7.9 2.9.8 5.6-.5 1.9-.9 3.5-2 3.5-2.5 0-1.2-.4-1.1-1.8.3zM518.5 75.5c5 1.8 5.5 1.8 3.1 0-1.1-.8-3.1-1.5-4.5-1.5-2.2.1-1.9.3 1.4 1.5zM453.2 78c-1.4 2.3-1.6 4.4-.3 3.5.5-.3 1.1.9 1.3 2.7.3 2.8.4 2.5.8-1.5.6-5.7-.1-7.4-1.8-4.7zM393.6 80.5c.6 1.6 5.1 3.2 6 2.2 1-1-.8-2.8-2.2-2.3-.8.3-1.4.1-1.4-.4 0-.6-.7-1-1.5-1-.9 0-1.2.6-.9 1.5zM457 83.5c.1 2.6.2 2.8 1.1 1.2.8-1.4.8-2.2 0-3-.8-.8-1.1-.3-1.1 1.8zM402 82.4c0 .2.7.9 1.5 1.6 1.3 1.1 1.4 1 .9-.4-.5-1.4-2.4-2.3-2.4-1.2zM460.8 84.5c-.3 1.4-.1 2.5.3 2.5.5 0 .9-1.1.9-2.5s-.2-2.5-.4-2.5-.6 1.1-.8 2.5zM501 85.1c0 1.6.4 2.8.9 2.5.8-.5.3-5.6-.5-5.6-.2 0-.4 1.4-.4 3.1zM349.1 85.7c.2 2.4.2 2.5.6.5.2-1.2.8-2.2 1.3-2.2s1.1 1 1.3 2.2c.4 2 .4 1.9.6-.5.1-2.1-.4-2.7-1.9-2.7s-2 .6-1.9 2.7zM361 83.4c0 .2.7.6 1.5 1 .8.3 1.5.1 1.5-.4 0-.6-.7-1-1.5-1s-1.5.2-1.5.4zM464.2 85.5c0 1.6.2 2.2.5 1.2.2-.9.2-2.3 0-3-.3-.6-.5.1-.5 1.8zM467.2 85.5c0 1.6.2 2.2.5 1.2.2-.9.2-2.3 0-3-.3-.6-.5.1-.5 1.8zM470 84.1c0 .9.9 2.4 2 3.4 2.6 2.3 2.6.8 0-2.5-1.4-1.8-2-2.1-2-.9zM495.8 85.5c.2 1.4.9 2.5 1.4 2.5.6 0 .7-.7.4-1.6-.3-.9-.6-2-.6-2.5s-.4-.9-.9-.9c-.4 0-.6 1.1-.3 2.5zM356.2 86.5c0 1.6.2 2.2.5 1.2.2-.9.2-2.3 0-3-.3-.6-.5.1-.5 1.8zM399.9 84.7c-.1.5-.1 1.6 0 2.5.2 1.1-.5 1.8-1.4 1.8-.9 0-1.3.5-1 1 .5.8 1.1.8 1.9 0 .8-.6 2.7-.7 4.6-.3 2.4.4 3.1.3 2.6-.6-.4-.6-1.1-.9-1.5-.7-1.2.8-5.2-2.4-4.6-3.5.4-.5.4-.9.1-.9-.3 0-.7.3-.7.7zM479.1 86.3c-.1 1.7.5 3 1.5 3.4 2.1.8 3.8-1.2 2.9-3.4-.6-1.6-.8-1.5-1.8.7l-1 2.5-.7-3-.8-3-.1 2.8zM379 86c0 .5.5 1 1.1 1 .5 0 .7-.5.4-1-.3-.6-.8-1-1.1-1-.2 0-.4.4-.4 1zM494.1 86.6c0 1.1.3 1.4.6.6.3-.7.2-1.6-.1-1.9-.3-.4-.6.2-.5 1.3zM486 88c0 .5.5 1 1 1 .6 0 1-.5 1-1 0-.6-.4-1-1-1-.5 0-1 .4-1 1zM394.5 89c-.3.5-.1 1 .4 1 .6 0 1.1-.5 1.1-1 0-.6-.2-1-.4-1-.3 0-.8.4-1.1 1z"/></svg>