<svg version="1.0" xmlns="http://www.w3.org/2000/svg" width="1333.333" height="396" viewBox="0 0 1000 297"><path d="M633.5 20.4c0 11.1-.6 24.4-1.3 29.6-1.4 10-5.8 33.9-6.9 36.8-.4.9 2.1-.8 5.5-4 12.2-11.2 23-18.4 30.5-20.2l2.9-.7-.4 107.3c-.4 96.5-.6 107.8-2.1 112.4-2.2 6.7-5.1 10.2-10.1 12.4-4.1 1.8-3.9 1.9 27.4 1.9h31.5l-4.5-2.2c-4.8-2.3-8.2-6.7-10.1-12.6-.9-2.6-1.3-33.4-1.6-111.4l-.5-107.8 2.9.7c7.2 1.8 18.8 9.4 30.2 20 4 3.6 6.1 5.1 5.8 3.9-1.5-4.7-4.7-20.8-6.3-32-1.3-8.3-1.8-18.4-1.8-33.1L724.5.3l-5 1.3c-22.4 5.7-58.6 5.7-81 0l-5-1.3v20.1zM142 1.4c0 .2 1.1 2.9 2.5 6.1 4.9 11 6.7 20.6 7.1 39 .4 11.8.1 19.8-.9 26-.8 4.9-1.3 9.2-1.1 9.3.1.2 2.1-1.5 4.3-3.7 10.3-10.3 27-15.7 36.8-12 8.2 3.1 12.9 13.9 12 27.3-1.1 17.1-7.8 25.6-20 25.6h-4.5l-2.1 5.7c-2.1 5.6-8.3 17.3-11.7 22l-1.6 2.3h9.8c15.3 0 21.2 2.6 26.1 11.5l2.8 5 .3 28.5c.2 18.6 0 29.8-.7 32.2-.6 2-2.7 5-4.6 6.7-6.5 5.6-16.3 3.6-20.8-4.3-.8-1.4-1.4-9.2-1.7-23.3l-.5-21.2-7.5 10.2c-4.1 5.5-13.5 16.3-20.9 23.9-12.3 12.7-13.3 14-11.9 15.6 2.9 3.3 3.9 6.4 5.9 17.9 4.9 29.2 21.6 45.3 47 45.3 23.2 0 41.2-16 46.5-41.1 1.3-6.2 1.5-14.2 1.2-49.4-.4-39.1-.6-42.5-2.6-49.7-1.1-4.2-2.8-9.1-3.7-10.7-2.4-4.8-7.5-10-11.7-12.2l-3.8-2 5.9-5.5c7.9-7.3 12.3-16 14.6-28.8 2.3-12.7 1.7-55.7-.9-64.9-3.9-14-11-22.2-22.5-25.8-5.5-1.8-10.6-2.3-30.1-3-12.9-.5-26.2-1.3-29.5-1.9-6.6-1.1-7.5-1.2-7.5-.6zM483.5 2.1c-3.3.5-26.5 1.1-51.5 1.5-27.4.5-44.3 1.1-42.4 1.6 4.5 1.2 9.2 6.4 10.9 12.2 2.3 7.5 2.2 256.7 0 264.3-1.9 6.5-4.8 10.1-9.9 12.3-4 1.8-2.9 1.9 58.2 1.9 38.2.1 62.2-.3 62.2-.8 0-.6-.5-1.3-1-1.6-1.9-1.2-6.2-8.7-8.6-15.3-5-13.2-5.8-19.2-5.9-42.8v-22l-2.6 4.1c-6.4 10-17.1 16.8-29.6 18.7-6.8 1.1-29 .3-30.9-1-.5-.4-.7-16.5-.4-39.5l.5-38.9 17.2.2 17.3.1-5.1-10.3c-2.7-5.7-5.7-12.9-6.6-16.1l-1.6-5.7h-9.3c-5.1 0-9.9-.3-10.8-.6-1.4-.5-1.6-4.1-1.6-30.1V64.7l12.8.6c19.3.8 34.2 5.9 45.1 15.4 2.8 2.4 5.1 4.2 5.1 3.8 0-.3-1.3-5.6-3-11.8-4.1-15.4-6-28.3-6-40.3 0-14.1 1.3-19.9 6.8-30.7.4-.8-.8-.7-9.3.4zM607 2.1c-2.5.4-13.7 1.1-25 1.4-23.6.7-31.5 1.7-38.5 4.9s-11.2 7-14.2 13c-6 11.8-5.7 5.5-6.1 121.6-.3 118.3-.5 114.5 6.3 128 8.5 16.9 23.1 26 41.6 26 17.5 0 33-9.6 41-25.3 3.9-7.6 5.9-18.2 5.9-31.6v-12.6l-5.9-4.7c-6.7-5.3-17.7-17.5-24.2-26.7l-4.4-6.3-.5 16.4c-.6 18.2-1.5 21.3-7.3 24.8-6.3 3.9-14.6 1.6-18.7-5.2-1.9-3.2-2-5.2-2-75.8 0-67.1.1-72.8 1.8-75.9 3.1-6.2 6.1-7.6 16.5-7.6 8.1 0 9.9.3 15.1 2.9 3.6 1.8 8.5 5.5 12.2 9.3 3.5 3.5 6.4 6.3 6.6 6.3.2 0-.2-4.2-1-9.3-.9-6.4-1.2-15-.9-28.2.5-20.3 2-28.8 7.3-40.4 1.3-2.9 2.4-5.5 2.4-5.7 0-.5-2.6-.3-8 .7zM261.5 6.4c3.2 4.2 6.1 12.2 7.4 20.7.7 4.2 1.1 47.1 1.1 123.2 0 102.6-.2 117.7-1.6 124.4-1.5 7.5-5.1 16.1-8.2 19.5-1.4 1.7.2 1.8 31.9 1.8 18.4 0 37.3-.5 42-1 21.6-2.5 34.6-11.7 40-28.3 3.2-9.9 2.3-28.5-2-44.7-6.8-25.2-17.3-53.2-29.3-78.1l-7-14.6 4.5-6.9c14.7-22.7 23-45.5 25.8-69.9 2.8-24.7-4.9-39.9-22.8-45.5-7.8-2.4-13.7-2.8-54.1-3.5L258.9 3l2.6 3.4zM325 66.5c4.2 2.1 5.4 7.3 3.9 16.7-2.1 13.8-11 31.1-22.4 43.4l-4.4 4.9-.1-33.3V65h10c7 0 11 .5 13 1.5zm0 103.3c7.9 23.8 11.1 45.5 8.2 54.3-2.8 8.1-10 11.9-22.9 11.9h-8.8l.3-34.2.3-34.1 7.7-8.4 7.6-8.4 1.9 3.6c1 2 3.6 8.9 5.7 15.3zM946.5 4c-22.8.5-30.3 1-34.9 2.4-13 3.7-20.7 10.1-24.8 20.5-2.9 7.4-3.1 24.6-.4 37.1 4.1 19.3 13.6 42.5 24.1 58.7l4.6 7.2-4.5 7.8c-9.1 16-15 33.7-18.2 55.5-1.2 8.2-1.8 21.6-2.3 48.8l-.6 37.5-3 6c-2.4 4.8-3.8 6.4-7.5 8.2l-4.5 2.2 30.9.1c17 0 30.7-.3 30.3-.6-.3-.3-2-1.3-3.9-2.2-3.9-2-7.4-6.9-8.9-12.6-1.5-5.4-.6-74.2 1.1-84.5.6-4.1 2.2-11.5 3.5-16.5 2.3-9.4 8.1-23.6 9.6-23.6.4 0 4.2 3.9 8.4 8.7l7.6 8.8-.4 52.5c-.2 38-.7 53.5-1.5 56.2-1.6 4.8-5.5 9.4-10.1 11.8l-3.6 1.9h31c30.8 0 31 0 27.5-1.8-4.8-2.6-7.7-5.9-9.5-11-1.3-3.8-1.5-19.5-1.5-128.5 0-132.8 0-131 5-142.3 1.2-2.6 3.1-5.8 4.2-7l2.1-2.3-10.4.2c-5.7.1-23.4.5-39.4.8zm5.8 61.1c.1.2 0 15.9-.3 34.9l-.5 34.5-6.8-9C933 110 924.1 89.4 924 77.7c0-6.3 4-11.1 10.5-12.8 2.9-.8 17.3-.6 17.8.2zM2.4 5c4 1.2 7.5 4.7 10 10 2.1 4.5 2.1 4.6 2.4 131.4.1 83.4-.1 128.8-.8 132.5-1.3 7.2-4.8 12.3-10.2 14.9l-4.3 2.1 30.9.1c17 0 30.7-.3 30.3-.6-.3-.3-2-1.3-3.9-2.2-3.7-1.9-7.3-6.8-8.8-12.1-.6-2.2-1-23.9-1-55.7v-52.1L63.8 143l16.7-30.3.3 81.9c.2 57.3-.1 83.3-.8 86.4-1.5 5.7-5.3 10.8-9.6 12.6-1.9.8-3.4 1.6-3.4 1.9 0 .3 13.8.5 30.8.5l30.7-.1-4.5-2.3c-3.6-1.8-5.1-3.4-7.5-8.1l-3-5.9V150.1c0-121.5.1-129.9 1.8-134.2 2-5.2 5.8-9.2 10.2-10.7 2.2-.8-5.1-1.1-27.9-1.1L66.7 4 71 6.3c3 1.6 5.1 3.7 6.8 6.8C82 21 81.3 23.1 63.4 55L47.5 83.4l-.3-29.9c-.3-31.2.2-36.1 3.9-42.2 1.1-1.7 3.9-4.1 6.2-5.2L61.5 4l-31 .1C11.4 4.1.6 4.5 2.4 5zM742.4 5c4 1.2 7.5 4.7 10 10 2.1 4.5 2.1 4.6 2.4 131.9.2 111.5 0 128.1-1.3 133.4-1.9 7.5-4.4 10.9-9.7 13.5l-4.3 2.1 30.9.1c17 0 30.7-.3 30.3-.6-.3-.3-2-1.3-3.9-2.2-3.7-1.9-7.3-6.8-8.8-12.1-.6-2.2-1-23.9-1-55.8v-52.2l16.8-30.2 16.7-30.1.3 82.2c.1 52.7-.1 83.6-.8 86-1.4 5.3-5 10.2-8.8 12.2-1.9.9-3.6 1.9-3.9 2.2-.4.3 13.3.6 30.3.6l30.9-.1-4.5-2.2c-3.7-1.8-5.1-3.4-7.5-8.2l-3-6V150c0-121.4.1-129.8 1.8-134.1 2-5.3 6.1-9.6 10.3-10.9 1.8-.5-8.9-.9-28-.9L806.7 4l4.3 2.3c3 1.6 5.1 3.7 6.8 6.8 4.2 7.9 3.5 10-14.4 41.8l-15.9 28.3-.3-29.8c-.2-19.5.1-31.5.8-34.4 1.7-6.7 4.8-11 9.4-13.1 4.1-1.9 4.1-1.9-26.9-1.8-19 0-29.9.4-28.1.9z"/></svg>